<svg width="209" height="37" viewBox="0 0 209 37" fill="none" xmlns="http://www.w3.org/2000/svg">
<path d="M6.35656 24V6.9375H11.8527C13.3605 6.9375 14.7159 7.28125 15.9191 7.96875C17.1222 8.64844 18.0597 9.61328 18.7316 10.8633C19.4112 12.1055 19.755 13.5 19.7628 15.0469V15.832C19.7628 17.3945 19.4308 18.7969 18.7667 20.0391C18.1105 21.2734 17.1808 22.2422 15.9777 22.9453C14.7823 23.6406 13.4464 23.9922 11.9698 24H6.35656ZM10.4698 10.1133V20.8359H11.8995C13.0792 20.8359 13.9855 20.418 14.6183 19.582C15.2511 18.7383 15.5675 17.4883 15.5675 15.832V15.0938C15.5675 13.4453 15.2511 12.2031 14.6183 11.3672C13.9855 10.5312 13.0636 10.1133 11.8527 10.1133H10.4698ZM35.8414 15.8203C35.8414 17.4844 35.5328 18.957 34.9156 20.2383C34.2984 21.5195 33.4195 22.5078 32.2789 23.2031C31.1461 23.8906 29.8531 24.2344 28.4 24.2344C26.9469 24.2344 25.6578 23.9023 24.5328 23.2383C23.4078 22.5664 22.5289 21.6094 21.8961 20.3672C21.2711 19.125 20.943 17.6992 20.9117 16.0898V15.1289C20.9117 13.457 21.2164 11.9844 21.8258 10.7109C22.443 9.42969 23.3219 8.44141 24.4625 7.74609C25.6109 7.05078 26.9156 6.70312 28.3766 6.70312C29.8219 6.70312 31.1109 7.04687 32.2437 7.73438C33.3766 8.42188 34.2555 9.40234 34.8805 10.6758C35.5133 11.9414 35.8336 13.3945 35.8414 15.0352V15.8203ZM31.6578 15.1055C31.6578 13.4102 31.3727 12.125 30.8023 11.25C30.2398 10.3672 29.4312 9.92578 28.3766 9.92578C26.3141 9.92578 25.2242 11.4727 25.107 14.5664L25.0953 15.8203C25.0953 17.4922 25.3727 18.7773 25.9273 19.6758C26.482 20.5742 27.3062 21.0234 28.4 21.0234C29.4391 21.0234 30.2398 20.582 30.8023 19.6992C31.3648 18.8164 31.65 17.5469 31.6578 15.8906V15.1055ZM50.7012 17.6367L52.6583 6.9375H56.7364L53.1153 24H48.8497L46.5645 14.2734L44.3262 24H40.0723L36.4395 6.9375H40.5294L42.4864 17.6367L44.8302 6.9375H48.3223L50.7012 17.6367ZM72.1119 24H68.022L61.9752 13.3828V24H57.8619V6.9375H61.9752L68.0103 17.5547V6.9375H72.1119V24ZM78.3467 20.8359H85.5069V24H74.2334V6.9375H78.3467V20.8359ZM100.46 15.8203C100.46 17.4844 100.152 18.957 99.5347 20.2383C98.9175 21.5195 98.0386 22.5078 96.898 23.2031C95.7652 23.8906 94.4722 24.2344 93.0191 24.2344C91.5659 24.2344 90.2769 23.9023 89.1519 23.2383C88.0269 22.5664 87.148 21.6094 86.5152 20.3672C85.8902 19.125 85.562 17.6992 85.5308 16.0898V15.1289C85.5308 13.457 85.8355 11.9844 86.4448 10.7109C87.062 9.42969 87.9409 8.44141 89.0816 7.74609C90.23 7.05078 91.5347 6.70312 92.9956 6.70312C94.4409 6.70312 95.73 7.04687 96.8628 7.73438C97.9956 8.42188 98.8745 9.40234 99.4995 10.6758C100.132 11.9414 100.453 13.3945 100.46 15.0352V15.8203ZM96.2769 15.1055C96.2769 13.4102 95.9917 12.125 95.4214 11.25C94.8589 10.3672 94.0503 9.92578 92.9956 9.92578C90.9331 9.92578 89.8433 11.4727 89.7261 14.5664L89.7144 15.8203C89.7144 17.4922 89.9917 18.7773 90.5464 19.6758C91.1011 20.5742 91.9253 21.0234 93.0191 21.0234C94.0581 21.0234 94.8589 20.582 95.4214 19.6992C95.9839 18.8164 96.2691 17.5469 96.2769 15.8906V15.1055ZM111.535 20.8125H105.898L104.914 24H100.52L106.777 6.9375H110.645L116.949 24H112.531L111.535 20.8125ZM106.883 17.6367H110.551L108.711 11.7188L106.883 17.6367ZM117.723 24V6.9375H123.219C124.727 6.9375 126.082 7.28125 127.286 7.96875C128.489 8.64844 129.426 9.61328 130.098 10.8633C130.778 12.1055 131.122 13.5 131.129 15.0469V15.832C131.129 17.3945 130.797 18.7969 130.133 20.0391C129.477 21.2734 128.547 22.2422 127.344 22.9453C126.149 23.6406 124.813 23.9922 123.336 24H117.723ZM121.836 10.1133V20.8359H123.266C124.446 20.8359 125.352 20.418 125.985 19.582C126.618 18.7383 126.934 17.4883 126.934 15.832V15.0938C126.934 13.4453 126.618 12.2031 125.985 11.3672C125.352 10.5312 124.43 10.1133 123.219 10.1133H121.836ZM143.282 19.8047C143.282 18.8594 142.95 18.1133 142.286 17.5664C141.622 17.0117 140.407 16.4883 138.642 15.9961C136.876 15.4961 135.587 14.9531 134.774 14.3672C133.618 13.5391 133.04 12.4531 133.04 11.1094C133.04 9.80469 133.575 8.74609 134.645 7.93359C135.724 7.11328 137.099 6.70312 138.77 6.70312C139.903 6.70312 140.915 6.92188 141.806 7.35938C142.704 7.79687 143.399 8.40625 143.892 9.1875C144.384 9.96875 144.63 10.8398 144.63 11.8008H143.177C143.177 10.6367 142.778 9.70312 141.981 9C141.185 8.28906 140.114 7.93359 138.77 7.93359C137.466 7.93359 136.427 8.22656 135.653 8.8125C134.88 9.39062 134.493 10.1484 134.493 11.0859C134.493 11.9531 134.841 12.6602 135.536 13.207C136.231 13.7539 137.345 14.2383 138.876 14.6602C140.407 15.0742 141.567 15.5078 142.356 15.9609C143.145 16.4062 143.739 16.9414 144.138 17.5664C144.536 18.1914 144.735 18.9297 144.735 19.7812C144.735 21.125 144.196 22.2031 143.118 23.0156C142.048 23.8281 140.634 24.2344 138.876 24.2344C137.673 24.2344 136.567 24.0195 135.56 23.5898C134.56 23.1602 133.798 22.5586 133.274 21.7852C132.759 21.0117 132.501 20.125 132.501 19.125H133.942C133.942 20.3281 134.392 21.2773 135.29 21.9727C136.188 22.668 137.384 23.0156 138.876 23.0156C140.204 23.0156 141.27 22.7227 142.075 22.1367C142.88 21.5508 143.282 20.7734 143.282 19.8047ZM158.951 8.16797H153.103V24H151.662V8.16797H145.826V6.9375H158.951V8.16797ZM173.517 16.3945C173.517 17.9648 173.244 19.3438 172.697 20.5312C172.158 21.7188 171.385 22.6328 170.377 23.2734C169.369 23.9141 168.205 24.2344 166.885 24.2344C164.892 24.2344 163.283 23.5234 162.057 22.1016C160.83 20.6719 160.217 18.7461 160.217 16.3242V14.5664C160.217 13.0117 160.49 11.6367 161.037 10.4414C161.592 9.23828 162.373 8.31641 163.381 7.67578C164.389 7.02734 165.549 6.70312 166.861 6.70312C168.174 6.70312 169.33 7.01953 170.33 7.65234C171.338 8.28516 172.115 9.17969 172.662 10.3359C173.209 11.4922 173.494 12.832 173.517 14.3555V16.3945ZM172.076 14.543C172.076 12.4883 171.611 10.8789 170.682 9.71484C169.752 8.55078 168.478 7.96875 166.861 7.96875C165.275 7.96875 164.01 8.55469 163.064 9.72656C162.127 10.8906 161.658 12.5195 161.658 14.6133V16.3945C161.658 18.418 162.127 20.0234 163.064 21.2109C164.002 22.3906 165.275 22.9805 166.885 22.9805C168.517 22.9805 169.791 22.3984 170.705 21.2344C171.619 20.0625 172.076 18.4336 172.076 16.3477V14.543ZM183.045 16.8984H178.088V24H176.635V6.9375H182.178C183.998 6.9375 185.42 7.37891 186.444 8.26172C187.467 9.14453 187.979 10.3789 187.979 11.9648C187.979 13.0586 187.659 14.0234 187.018 14.8594C186.377 15.6953 185.518 16.2734 184.44 16.5938L188.705 23.8477V24H187.17L183.045 16.8984ZM178.088 15.668H182.506C183.717 15.668 184.69 15.3242 185.424 14.6367C186.159 13.9492 186.526 13.0586 186.526 11.9648C186.526 10.7617 186.143 9.82812 185.377 9.16406C184.612 8.5 183.538 8.16797 182.155 8.16797H178.088V15.668ZM200.847 15.8203H192.866V22.7812H202.042V24H191.425V6.9375H201.983V8.16797H192.866V14.6016H200.847V15.8203Z" fill="black"/>
</svg>
